<svg id="svg" version="1.1" xmlns="http://www.w3.org/2000/svg" xmlns:xlink="http://www.w3.org/1999/xlink" width="400" height="400" viewBox="0, 0, 400,400"><g id="svgg"><path id="path0" d="M231.700 0.293 C 230.105 0.371,228.800 0.607,228.800 0.818 C 228.800 1.028,227.911 1.200,226.824 1.200 C 225.737 1.200,224.736 1.380,224.600 1.600 C 224.464 1.820,223.553 2.000,222.576 2.000 C 221.599 2.000,220.800 2.180,220.800 2.400 C 220.800 2.620,220.080 2.800,219.200 2.800 C 218.320 2.800,217.600 2.980,217.600 3.200 C 217.600 3.420,217.071 3.600,216.424 3.600 C 215.777 3.600,215.136 3.780,215.000 4.000 C 214.864 4.220,214.324 4.400,213.800 4.400 C 213.276 4.400,212.736 4.580,212.600 4.800 C 212.464 5.020,211.913 5.200,211.376 5.200 C 210.839 5.200,210.400 5.380,210.400 5.600 C 210.400 5.820,209.961 6.000,209.424 6.000 C 208.887 6.000,208.336 6.180,208.200 6.400 C 208.064 6.620,207.513 6.800,206.976 6.800 C 206.439 6.800,206.000 6.980,206.000 7.200 C 206.000 7.420,205.640 7.600,205.200 7.600 C 204.760 7.600,204.400 7.780,204.400 8.000 C 204.400 8.220,204.040 8.400,203.600 8.400 C 203.160 8.400,202.800 8.580,202.800 8.800 C 202.800 9.020,202.440 9.200,202.000 9.200 C 201.560 9.200,201.200 9.380,201.200 9.600 C 201.200 9.820,200.830 10.000,200.377 10.000 C 199.557 10.000,196.755 11.414,194.738 12.846 C 194.154 13.261,193.479 13.600,193.238 13.600 C 192.997 13.600,192.800 13.780,192.800 14.000 C 192.800 14.220,192.528 14.400,192.196 14.400 C 191.864 14.400,191.028 14.940,190.337 15.600 C 189.646 16.260,188.878 16.800,188.629 16.800 C 188.380 16.800,187.917 17.160,187.600 17.600 C 187.283 18.040,186.809 18.400,186.547 18.400 C 186.284 18.400,184.973 19.480,183.632 20.800 C 182.292 22.120,181.057 23.200,180.888 23.200 C 180.719 23.200,179.505 24.375,178.190 25.812 C 176.876 27.248,174.855 29.405,173.700 30.603 C 172.545 31.802,171.600 32.968,171.600 33.195 C 171.600 33.422,171.060 34.172,170.400 34.863 C 169.740 35.554,169.200 36.322,169.200 36.571 C 169.200 36.820,168.840 37.283,168.400 37.600 C 167.960 37.917,167.600 38.457,167.600 38.800 C 167.600 39.143,167.240 39.683,166.800 40.000 C 166.360 40.317,166.000 40.897,166.000 41.288 C 166.000 41.680,165.820 42.000,165.600 42.000 C 165.380 42.000,165.200 42.360,165.200 42.800 C 165.200 43.240,165.020 43.600,164.800 43.600 C 164.580 43.600,164.400 43.758,164.400 43.952 C 164.400 44.145,163.760 45.360,162.977 46.652 C 162.194 47.943,161.452 49.495,161.327 50.100 C 161.202 50.705,160.958 51.200,160.785 51.200 C 160.612 51.200,160.349 51.920,160.200 52.800 C 160.051 53.680,159.766 54.400,159.565 54.400 C 159.364 54.400,159.200 54.940,159.200 55.600 C 159.200 56.260,159.020 56.800,158.800 56.800 C 158.580 56.800,158.400 57.160,158.400 57.600 C 158.400 58.040,158.220 58.400,158.000 58.400 C 157.780 58.400,157.600 58.929,157.600 59.576 C 157.600 60.223,157.420 60.864,157.200 61.000 C 156.980 61.136,156.800 61.777,156.800 62.424 C 156.800 63.071,156.620 63.600,156.400 63.600 C 156.180 63.600,156.000 64.140,156.000 64.800 C 156.000 65.460,155.820 66.000,155.600 66.000 C 155.380 66.000,155.200 66.720,155.200 67.600 C 155.200 68.480,155.020 69.200,154.800 69.200 C 154.580 69.200,154.400 70.100,154.400 71.200 C 154.400 72.300,154.220 73.200,154.000 73.200 C 153.780 73.200,153.600 73.999,153.600 74.976 C 153.600 75.953,153.420 76.864,153.200 77.000 C 152.980 77.136,152.800 78.587,152.800 80.224 C 152.800 81.941,152.631 83.200,152.400 83.200 C 152.153 83.200,152.000 85.259,152.000 88.576 C 152.000 91.729,151.835 94.055,151.600 94.200 C 151.340 94.360,151.200 103.068,151.200 119.016 L 151.200 143.584 123.362 143.692 L 95.525 143.800 93.762 145.775 C 92.785 146.871,92.000 148.151,92.000 148.651 C 92.000 149.147,91.820 149.664,91.600 149.800 C 91.047 150.142,91.047 220.000,91.600 220.000 C 91.820 220.000,92.000 220.500,92.000 221.112 C 92.000 221.765,92.330 222.461,92.800 222.800 C 93.240 223.117,93.600 223.589,93.600 223.849 C 93.600 224.563,96.288 226.000,97.623 226.000 C 98.270 226.000,98.800 226.180,98.800 226.400 C 98.800 226.663,107.800 226.800,125.000 226.800 L 151.200 226.800 151.200 310.000 C 151.200 365.200,151.335 393.200,151.600 393.200 C 151.820 393.200,152.000 393.801,152.000 394.536 C 152.000 395.577,152.410 396.307,153.855 397.836 L 155.709 399.800 193.755 399.921 C 229.736 400.035,231.876 400.002,233.200 399.322 C 234.984 398.405,235.600 397.816,235.600 397.029 C 235.600 396.683,235.735 396.399,235.900 396.397 C 237.178 396.384,237.200 394.941,237.200 310.520 L 237.200 226.800 268.000 226.800 C 288.267 226.800,298.800 226.663,298.800 226.400 C 298.800 226.180,299.438 226.000,300.217 226.000 C 301.774 226.000,302.174 225.754,304.452 223.400 C 305.561 222.254,306.000 221.455,306.000 220.580 C 306.000 219.909,306.182 219.178,306.405 218.955 C 306.889 218.471,306.713 151.767,306.221 149.600 C 306.046 148.830,305.340 147.450,304.652 146.532 C 302.311 143.414,304.578 143.600,268.980 143.600 L 237.187 143.600 237.362 121.900 C 237.539 99.914,237.766 94.000,238.432 94.000 C 238.634 94.000,238.800 93.460,238.800 92.800 C 238.800 92.140,238.980 91.600,239.200 91.600 C 239.420 91.600,239.600 91.175,239.600 90.656 C 239.600 90.137,240.050 89.049,240.600 88.238 C 241.150 87.428,241.600 86.586,241.600 86.369 C 241.600 85.802,244.009 83.502,245.303 82.832 C 245.906 82.520,246.400 82.115,246.400 81.932 C 246.400 81.750,246.760 81.600,247.200 81.600 C 247.640 81.600,248.000 81.420,248.000 81.200 C 248.000 80.980,248.360 80.800,248.800 80.800 C 249.240 80.800,249.600 80.620,249.600 80.400 C 249.600 80.180,250.219 80.000,250.976 80.000 C 251.733 80.000,252.464 79.820,252.600 79.600 C 252.736 79.380,253.647 79.200,254.624 79.200 C 255.601 79.200,256.400 79.020,256.400 78.800 C 256.400 78.538,264.133 78.400,278.800 78.400 C 293.467 78.400,301.200 78.262,301.200 78.000 C 301.200 77.780,301.880 77.600,302.712 77.600 C 303.765 77.600,304.398 77.357,304.800 76.800 C 305.117 76.360,305.562 76.000,305.788 76.000 C 306.015 76.000,306.740 75.325,307.400 74.500 L 308.600 73.000 308.713 39.892 C 308.838 3.481,308.909 4.611,306.326 1.923 L 304.671 0.200 269.635 0.175 C 250.366 0.162,233.295 0.215,231.700 0.293 " stroke="none" fill="#ffffff" fill-rule="evenodd"></path><path id="path1" d="" stroke="none" fill="#080404" fill-rule="evenodd"></path><path id="path2" d="" stroke="none" fill="#080404" fill-rule="evenodd"></path><path id="path3" d="" stroke="none" fill="#080404" fill-rule="evenodd"></path><path id="path4" d="" stroke="none" fill="#080404" fill-rule="evenodd"></path></g></svg>
