<svg width="53" height="53" viewBox="0 0 53 53" fill="none" xmlns="http://www.w3.org/2000/svg">
<path d="M36.4375 0H16.5625C7.41669 0 0 7.41669 0 16.5625V36.4375C0 45.5833 7.41669 53 16.5625 53H36.4375C45.5833 53 53 45.5833 53 36.4375V16.5625C53 7.41669 45.5833 0 36.4375 0ZM48.0312 36.4375C48.0312 42.8306 42.8306 48.0312 36.4375 48.0312H16.5625C10.1694 48.0312 4.96875 42.8306 4.96875 36.4375V16.5625C4.96875 10.1694 10.1694 4.96875 16.5625 4.96875H36.4375C42.8306 4.96875 48.0312 10.1694 48.0312 16.5625V36.4375Z" fill="white"/>
<path d="M26.5 13.25C19.1827 13.25 13.25 19.1827 13.25 26.5C13.25 33.8173 19.1827 39.75 26.5 39.75C33.8173 39.75 39.75 33.8173 39.75 26.5C39.75 19.1827 33.8173 13.25 26.5 13.25ZM26.5 34.7812C21.9354 34.7812 18.2188 31.0646 18.2188 26.5C18.2188 21.9321 21.9354 18.2188 26.5 18.2188C31.0646 18.2188 34.7812 21.9321 34.7812 26.5C34.7812 31.0646 31.0646 34.7812 26.5 34.7812Z" fill="white"/>
<path d="M40.7437 14.0218C41.7188 14.0218 42.5093 13.2313 42.5093 12.2562C42.5093 11.2811 41.7188 10.4907 40.7437 10.4907C39.7686 10.4907 38.9781 11.2811 38.9781 12.2562C38.9781 13.2313 39.7686 14.0218 40.7437 14.0218Z" fill="white"/>
</svg>
