<?xml version="1.0" standalone="no"?>
<!DOCTYPE svg PUBLIC "-//W3C//DTD SVG 20010904//EN"
 "http://www.w3.org/TR/2001/REC-SVG-20010904/DTD/svg10.dtd">
<svg version="1.0" xmlns="http://www.w3.org/2000/svg"
 width="240.000000pt" height="240.000000pt" viewBox="0 0 240.000000 240.000000"
 preserveAspectRatio="xMidYMid meet">

<g transform="translate(0.000000,240.000000) scale(0.100000,-0.100000)"
fill="#ffffff" stroke="none">
<path d="M632 2389 c-260 -30 -445 -147 -540 -340 -83 -169 -92 -254 -92 -849
0 -595 9 -680 92 -849 57 -115 144 -202 259 -259 169 -83 254 -92 849 -92 595
0 680 9 849 92 198 97 309 278 341 553 13 117 13 993 0 1110 -23 198 -82 337
-190 445 -108 108 -247 167 -445 190 -107 12 -1017 11 -1123 -1z m1096 -219
c285 -29 413 -157 442 -442 13 -130 13 -926 0 -1056 -29 -285 -157 -413 -442
-442 -130 -13 -926 -13 -1056 0 -285 29 -413 157 -442 442 -13 130 -13 926 0
1056 6 55 20 127 31 159 56 166 188 260 395 282 116 12 955 13 1072 1z"/>
<path d="M1795 1979 c-89 -26 -125 -141 -70 -225 41 -63 159 -73 215 -19 81
78 47 214 -61 245 -39 11 -43 11 -84 -1z"/>
<path d="M1070 1804 c-327 -70 -543 -402 -475 -729 69 -331 400 -549 730 -480
236 49 431 244 480 480 29 140 12 267 -56 404 -122 247 -407 384 -679 325z
m225 -219 c117 -31 209 -105 261 -210 117 -240 -26 -517 -294 -567 -208 -39
-413 111 -454 330 -28 150 50 319 183 399 99 59 199 75 304 48z"/>
</g>
</svg>
