<svg id="svg" version="1.1" xmlns="http://www.w3.org/2000/svg" xmlns:xlink="http://www.w3.org/1999/xlink" width="400" height="400" viewBox="0, 0, 400,400"><g id="svgg"><path id="path0" d="M185.667 23.157 C 68.783 32.819,-7.194 151.821,33.539 261.432 L 35.000 265.365 35.000 300.182 L 35.000 335.000 59.917 335.009 L 84.833 335.019 89.512 338.759 C 149.712 386.889,234.625 390.326,299.000 347.238 C 303.659 344.119,305.335 342.885,310.712 338.612 L 315.257 335.000 340.128 335.000 L 365.000 335.000 365.000 300.182 L 365.000 265.365 366.463 261.432 C 383.423 215.839,380.431 163.807,358.330 120.011 C 325.947 55.841,257.146 17.247,185.667 23.157 M214.167 28.020 C 328.250 36.888,402.500 155.317,361.018 262.250 L 359.952 265.000 353.607 265.000 C 347.696 265.000,347.278 264.960,347.500 264.417 C 376.901 192.454,352.480 112.069,288.167 69.110 C 235.912 34.206,165.818 33.857,113.178 68.238 C 48.874 110.237,23.007 191.372,51.462 261.815 C 52.125 263.455,52.667 264.842,52.667 264.898 C 52.667 264.954,49.832 265.000,46.368 265.000 L 40.069 265.000 38.746 261.583 C 25.279 226.809,23.820 185.001,34.842 149.667 C 59.210 71.546,132.706 21.689,214.167 28.020 M215.333 48.171 C 280.666 54.705,334.966 101.858,350.641 165.667 C 352.549 173.436,352.671 174.490,351.630 174.229 C 351.185 174.117,350.043 173.859,349.092 173.655 L 347.362 173.284 345.891 170.342 C 340.271 159.099,330.501 152.988,317.873 152.816 L 312.579 152.744 281.290 121.456 L 250.000 90.168 229.750 110.414 L 209.500 130.660 207.383 126.472 C 205.329 122.411,202.424 118.143,200.414 116.235 L 199.433 115.304 197.489 117.402 C 195.219 119.851,192.536 123.862,190.956 127.167 C 190.342 128.450,189.795 129.569,189.740 129.652 C 189.685 129.736,180.721 120.886,169.820 109.986 L 150.000 90.168 118.710 121.456 L 87.421 152.744 82.127 152.815 C 69.027 152.990,57.603 160.512,53.258 171.823 C 52.774 173.082,50.164 174.277,47.793 174.326 C 46.563 174.351,51.737 155.541,55.721 145.500 C 81.256 81.160,146.625 41.299,215.333 48.171 M168.961 115.795 L 187.754 134.590 186.880 138.045 C 183.056 153.163,186.727 164.102,196.096 165.507 L 197.667 165.742 197.667 179.952 L 197.667 194.161 190.022 186.522 L 182.377 178.882 182.927 177.858 C 186.610 170.990,175.108 159.159,163.713 158.095 L 161.559 157.894 161.773 161.030 C 162.620 173.460,170.758 184.803,177.229 182.573 L 178.604 182.100 188.135 191.635 L 197.667 201.171 197.667 203.080 L 197.667 204.989 179.361 205.078 L 161.055 205.167 160.663 203.833 C 157.264 192.278,146.400 182.168,133.691 178.737 C 129.378 177.572,120.030 177.482,116.000 178.566 C 112.917 179.396,113.252 179.645,111.992 175.579 C 109.028 166.005,103.164 159.086,94.801 155.294 L 92.558 154.277 121.195 125.639 C 136.945 109.887,149.908 97.000,150.000 97.000 C 150.093 97.000,158.626 105.458,168.961 115.795 M278.796 125.629 L 307.424 154.259 304.481 155.638 C 296.262 159.489,291.188 165.538,287.961 175.333 C 286.929 178.467,286.589 179.150,286.099 179.074 C 285.770 179.023,284.450 178.723,283.167 178.407 C 272.928 175.888,259.491 179.303,250.744 186.647 L 248.423 188.596 241.880 182.047 L 235.338 175.498 236.620 172.499 C 238.339 168.477,239.340 164.572,239.573 160.974 L 239.765 158.000 238.251 158.000 C 235.347 158.000,230.123 159.981,226.268 162.543 L 223.935 164.094 218.634 158.801 L 213.333 153.508 213.333 150.111 C 213.333 146.132,212.908 142.641,211.925 138.560 L 211.216 135.619 230.524 116.310 C 241.143 105.689,249.907 97.000,250.000 97.000 C 250.092 97.000,263.051 109.883,278.796 125.629 M88.593 158.188 C 99.451 160.922,107.440 170.693,108.832 182.941 C 109.135 185.613,109.134 185.613,113.877 184.173 C 128.895 179.614,143.785 184.751,152.207 197.397 C 153.480 199.309,156.000 204.235,156.000 204.811 C 156.000 204.915,131.025 205.000,100.500 205.000 L 45.000 205.000 45.003 199.917 C 45.008 190.724,46.093 180.504,47.135 179.828 C 48.044 179.238,52.142 178.113,54.418 177.829 L 56.205 177.606 57.095 175.220 C 61.928 162.265,75.543 154.903,88.593 158.188 M324.167 158.212 C 332.757 160.420,339.651 166.838,342.998 175.743 L 343.658 177.500 347.246 178.202 C 349.219 178.588,351.433 179.188,352.167 179.536 L 353.500 180.169 353.894 183.335 C 354.570 188.780,355.000 195.354,355.000 200.269 L 355.000 205.000 299.500 205.000 C 256.456 205.000,244.000 204.910,244.000 204.599 C 244.000 203.770,247.008 198.055,248.463 196.120 C 257.809 183.687,271.800 179.675,288.043 184.771 L 290.585 185.569 291.164 182.035 C 294.026 164.558,308.424 154.164,324.167 158.212 M219.892 168.247 C 217.835 171.406,217.165 174.821,218.143 177.162 L 218.689 178.469 214.378 182.818 C 212.007 185.210,208.445 188.854,206.463 190.917 C 204.481 192.979,202.741 194.667,202.596 194.667 C 202.452 194.667,202.333 188.152,202.333 180.190 L 202.333 165.714 204.125 165.193 C 206.683 164.450,208.955 162.798,210.483 160.572 L 211.807 158.643 216.149 162.985 L 220.491 167.328 219.892 168.247 M244.829 192.823 C 242.283 196.350,240.486 199.858,238.892 204.417 C 238.701 204.963,237.522 205.000,220.510 205.000 L 202.333 205.000 202.333 203.415 L 202.333 201.829 212.283 191.884 L 222.232 181.939 223.860 182.492 C 226.326 183.329,228.619 182.674,231.333 180.358 L 232.500 179.362 238.909 185.754 C 244.977 191.805,245.292 192.181,244.829 192.823 M354.796 211.917 C 354.445 216.245,353.591 224.508,353.483 224.622 C 353.420 224.689,349.552 222.547,344.889 219.862 L 336.411 214.981 331.750 215.074 L 327.089 215.167 339.260 222.167 C 345.954 226.017,351.708 229.392,352.046 229.667 C 352.861 230.330,351.422 237.403,348.470 247.250 L 347.645 250.000 345.025 250.000 L 342.404 250.000 325.619 236.405 C 316.387 228.929,306.666 221.054,304.016 218.905 L 299.199 215.000 295.366 215.000 C 293.172 215.000,291.669 215.124,291.850 215.290 C 292.024 215.450,301.317 222.975,312.500 232.014 C 323.683 241.053,333.257 248.797,333.776 249.224 L 334.718 250.000 320.442 249.972 L 306.167 249.944 303.333 246.889 C 301.775 245.208,294.452 237.346,287.061 229.417 L 273.622 215.000 270.478 215.000 C 268.748 215.000,267.333 215.081,267.333 215.179 C 267.333 215.374,293.609 243.637,297.459 247.583 L 299.817 250.000 289.138 250.000 L 278.459 250.000 270.313 237.918 C 265.832 231.273,260.527 223.398,258.524 220.418 L 254.880 215.000 251.954 215.000 L 249.028 215.000 254.706 223.417 C 257.829 228.046,263.143 235.923,266.515 240.922 L 272.646 250.011 264.278 249.922 L 255.910 249.833 247.461 232.500 L 239.012 215.167 236.339 215.070 C 234.869 215.017,233.667 215.028,233.667 215.096 C 233.667 215.163,237.468 223.007,242.114 232.526 L 250.561 249.833 243.732 249.924 C 239.976 249.973,236.846 249.957,236.776 249.887 C 236.707 249.818,234.270 241.977,231.362 232.464 L 226.073 215.167 223.495 215.069 C 221.403 214.989,220.951 215.058,221.095 215.434 C 221.193 215.689,223.540 223.309,226.310 232.366 C 229.080 241.423,231.429 249.096,231.529 249.417 C 231.699 249.958,231.257 250.000,225.371 250.000 L 219.030 250.000 218.830 248.917 C 218.720 248.321,217.467 240.483,216.045 231.500 L 213.460 215.167 211.063 215.069 C 209.728 215.014,208.667 215.109,208.667 215.283 C 208.667 215.454,209.867 223.136,211.333 232.354 C 212.800 241.572,214.000 249.313,214.000 249.557 C 214.000 249.909,212.797 250.000,208.167 250.000 L 202.333 250.000 202.333 232.500 L 202.333 215.000 200.000 215.000 L 197.667 215.000 197.667 232.500 L 197.667 250.000 191.833 250.000 C 187.100 250.000,186.000 249.913,186.000 249.541 C 186.000 249.288,187.200 241.545,188.667 232.333 C 190.133 223.122,191.333 215.447,191.333 215.278 C 191.333 215.109,190.253 215.015,188.933 215.069 L 186.532 215.167 183.951 231.500 C 182.532 240.483,181.280 248.321,181.170 248.917 L 180.970 250.000 174.629 250.000 C 168.743 250.000,168.301 249.958,168.471 249.417 C 168.571 249.096,170.920 241.423,173.690 232.366 C 176.460 223.309,178.807 215.689,178.905 215.434 C 179.049 215.058,178.598 214.989,176.507 215.069 L 173.931 215.167 168.628 232.476 C 165.712 241.996,163.274 249.837,163.211 249.900 C 163.149 249.963,160.022 249.973,156.264 249.924 L 149.430 249.833 157.882 232.522 C 162.530 223.000,166.333 215.157,166.333 215.091 C 166.333 215.026,165.130 215.017,163.660 215.070 L 160.986 215.167 152.533 232.500 L 144.079 249.833 135.706 249.922 L 127.332 250.011 133.749 240.506 C 137.279 235.277,142.595 227.400,145.564 223.000 L 150.961 215.000 148.044 215.000 L 145.127 215.000 141.141 220.917 C 138.949 224.171,133.642 232.046,129.348 238.417 L 121.540 250.000 110.928 250.000 L 100.317 250.000 116.173 233.011 C 124.894 223.667,132.172 215.933,132.348 215.824 C 133.258 215.262,132.359 215.000,129.517 215.000 L 126.367 215.000 110.100 232.481 L 93.833 249.962 79.558 249.981 L 65.282 250.000 75.058 242.078 C 80.434 237.721,90.008 229.975,96.333 224.865 C 102.658 219.756,107.976 215.446,108.150 215.287 C 108.329 215.125,106.807 215.000,104.642 215.000 L 100.817 215.000 97.992 217.291 C 96.438 218.551,86.708 226.426,76.370 234.791 L 57.574 250.000 54.968 250.000 L 52.362 250.000 51.522 247.339 C 49.297 240.295,47.175 230.363,47.773 229.790 C 48.066 229.510,64.144 220.153,72.500 215.400 C 73.022 215.103,72.117 215.018,68.333 215.012 L 63.500 215.003 55.069 219.877 C 50.433 222.557,46.586 224.694,46.522 224.625 C 46.379 224.471,45.417 215.325,45.220 212.250 L 45.077 210.000 200.014 210.000 L 354.952 210.000 354.796 211.917 M345.124 257.250 C 344.659 258.487,343.782 260.700,343.175 262.167 L 342.073 264.833 200.003 264.833 L 57.932 264.833 56.686 261.833 C 56.000 260.183,55.118 257.971,54.724 256.917 L 54.009 255.000 199.990 255.000 L 345.970 255.000 345.124 257.250 M360.000 300.000 L 360.000 330.000 200.000 330.000 L 40.000 330.000 40.000 300.000 L 40.000 270.000 200.000 270.000 L 360.000 270.000 360.000 300.000 M258.240 287.172 C 257.558 288.550,257.000 289.750,257.000 289.839 C 257.000 289.927,257.808 290.000,258.796 290.000 L 260.592 290.000 262.400 287.750 C 265.053 284.448,265.075 284.667,262.093 284.667 L 259.480 284.667 258.240 287.172 M153.635 286.583 C 153.618 286.721,153.580 287.621,153.550 288.583 L 153.496 290.333 155.748 290.333 L 158.000 290.333 158.000 297.263 C 158.000 307.597,159.850 310.013,166.773 308.726 C 169.256 308.264,169.191 308.351,168.629 306.256 L 168.158 304.500 166.441 304.612 C 163.329 304.815,163.333 304.828,163.333 294.833 L 163.333 286.333 158.500 286.333 C 155.842 286.333,153.653 286.446,153.635 286.583 M241.000 289.995 L 241.000 293.657 239.917 292.996 C 236.280 290.779,231.623 293.632,230.661 298.667 C 229.323 305.674,235.122 311.473,239.997 308.002 C 241.178 307.161,241.544 307.161,241.763 308.000 C 241.915 308.582,242.218 308.667,244.135 308.667 L 246.333 308.667 246.333 297.500 L 246.333 286.333 243.667 286.333 L 241.000 286.333 241.000 289.995 M57.000 298.128 L 57.000 308.667 59.782 308.667 L 62.563 308.667 62.584 305.750 C 62.595 304.146,62.618 302.667,62.635 302.464 C 62.654 302.245,63.749 302.021,65.343 301.912 C 70.235 301.577,72.999 299.401,73.268 295.673 C 73.710 289.573,71.564 287.980,62.583 287.739 L 57.000 287.590 57.000 298.128 M192.667 290.000 L 192.667 292.333 195.000 292.333 L 197.333 292.333 197.333 298.167 L 197.333 304.000 195.000 304.000 L 192.667 304.000 192.667 306.333 L 192.667 308.667 200.141 308.667 L 207.615 308.667 207.558 306.417 L 207.500 304.167 205.083 304.069 L 202.667 303.971 202.667 298.167 L 202.667 292.363 205.083 292.265 L 207.500 292.167 207.558 289.917 L 207.615 287.667 200.141 287.667 L 192.667 287.667 192.667 290.000 M119.208 288.917 C 119.115 289.237,118.937 290.212,118.814 291.083 L 118.591 292.667 116.462 292.667 L 114.333 292.667 114.333 294.667 L 114.333 296.667 116.333 296.667 L 118.333 296.667 118.333 299.852 C 118.333 307.353,120.865 309.738,127.757 308.734 C 131.001 308.261,130.814 308.443,130.322 306.245 L 129.918 304.439 127.515 304.593 C 124.149 304.809,123.667 304.206,123.667 299.788 L 123.667 296.667 126.833 296.667 L 130.000 296.667 130.000 294.667 L 130.000 292.667 126.833 292.667 L 123.667 292.667 123.667 290.500 L 123.667 288.333 121.522 288.333 C 119.767 288.333,119.347 288.439,119.208 288.917 M67.372 292.631 C 68.548 293.583,68.471 295.796,67.224 296.869 C 65.888 298.018,62.683 298.051,62.635 296.917 C 62.512 293.957,62.499 292.465,62.595 292.250 C 62.843 291.693,66.582 291.991,67.372 292.631 M80.500 292.955 C 73.495 296.145,74.641 307.012,82.159 308.694 C 90.285 310.513,95.681 300.490,89.784 294.531 C 87.639 292.365,83.383 291.642,80.500 292.955 M105.263 293.016 C 104.583 293.375,103.613 294.187,103.108 294.821 C 102.060 296.133,101.680 295.894,101.672 293.917 L 101.667 292.667 99.333 292.667 L 97.000 292.667 97.000 300.667 L 97.000 308.667 99.667 308.667 C 101.560 308.667,102.343 308.546,102.366 308.250 C 102.384 308.021,102.421 306.157,102.449 304.108 C 102.522 298.778,104.114 296.847,108.260 297.059 L 110.354 297.167 110.659 296.000 C 111.408 293.129,111.426 292.930,110.962 292.636 C 110.097 292.089,106.574 292.323,105.263 293.016 M138.833 292.573 C 137.529 292.890,135.000 294.087,135.000 294.388 C 135.000 294.636,136.229 297.279,136.486 297.584 C 136.525 297.631,137.444 297.358,138.529 296.979 C 140.754 296.200,142.686 296.279,143.693 297.190 C 144.685 298.088,144.530 298.186,141.458 298.597 C 136.383 299.276,134.337 300.861,134.335 304.115 C 134.331 308.426,138.837 310.305,143.254 307.837 C 144.788 306.979,145.314 307.084,145.328 308.250 C 145.332 308.541,145.997 308.667,147.526 308.667 L 149.720 308.667 149.610 302.558 C 149.483 295.489,149.107 294.423,146.250 293.040 C 144.828 292.352,140.789 292.097,138.833 292.573 M219.167 292.888 C 218.617 293.179,217.914 293.638,217.604 293.908 C 216.930 294.497,216.333 294.211,216.333 293.298 C 216.333 292.693,216.139 292.645,214.083 292.735 L 211.833 292.833 211.799 300.750 L 211.765 308.667 214.549 308.667 L 217.333 308.667 217.333 303.219 L 217.333 297.772 218.450 297.170 C 221.249 295.663,221.995 297.117,221.998 304.083 L 222.000 308.667 224.703 308.667 L 227.405 308.667 227.274 302.417 C 227.127 295.439,226.796 294.143,224.860 292.962 C 223.579 292.181,220.579 292.142,219.167 292.888 M273.153 292.935 C 269.632 294.600,268.609 298.930,271.167 301.334 L 271.982 302.099 270.991 303.228 C 269.771 304.618,269.711 305.939,270.809 307.244 L 271.618 308.205 270.476 309.117 C 266.412 312.359,271.843 316.133,278.979 315.026 C 283.642 314.302,285.996 312.381,285.999 309.295 C 286.001 306.427,283.898 305.333,278.380 305.333 C 274.858 305.333,274.333 305.183,274.333 304.172 C 274.333 303.451,274.478 303.408,277.335 303.271 C 281.685 303.063,283.501 301.545,283.452 298.157 L 283.426 296.333 284.713 296.333 L 286.000 296.333 286.000 294.500 L 286.000 292.667 283.917 292.665 C 282.771 292.664,280.183 292.581,278.167 292.481 C 275.003 292.323,274.315 292.385,273.153 292.935 M293.840 292.866 C 287.176 295.305,287.036 305.277,293.624 308.234 C 296.015 309.308,304.000 308.487,304.000 307.168 C 304.000 307.122,303.621 306.406,303.158 305.577 L 302.316 304.071 300.772 304.535 C 298.048 305.355,295.478 304.849,294.666 303.333 C 294.087 302.249,294.287 302.203,299.594 302.184 L 304.500 302.167 304.600 300.432 C 304.946 294.443,299.669 290.732,293.840 292.866 M315.833 292.888 C 315.283 293.179,314.580 293.638,314.271 293.908 C 313.596 294.497,313.000 294.211,313.000 293.298 C 313.000 292.693,312.806 292.645,310.750 292.735 L 308.500 292.833 308.466 300.750 L 308.432 308.667 311.216 308.667 L 314.000 308.667 314.000 303.219 L 314.000 297.772 315.116 297.170 C 317.916 295.663,318.662 297.117,318.665 304.083 L 318.667 308.667 321.369 308.667 L 324.072 308.667 323.941 302.417 C 323.794 295.439,323.463 294.143,321.527 292.962 C 320.246 292.181,317.245 292.142,315.833 292.888 M332.167 292.573 C 330.862 292.890,328.333 294.087,328.333 294.388 C 328.333 294.636,329.562 297.279,329.820 297.584 C 329.859 297.631,330.778 297.358,331.862 296.979 C 334.087 296.200,336.019 296.279,337.026 297.190 C 338.018 298.088,337.864 298.186,334.791 298.597 C 329.717 299.276,327.670 300.861,327.668 304.115 C 327.665 308.426,332.170 310.305,336.587 307.837 C 338.122 306.979,338.647 307.084,338.662 308.250 C 338.665 308.541,339.330 308.667,340.860 308.667 L 343.053 308.667 342.943 302.558 C 342.816 295.489,342.440 294.423,339.583 293.040 C 338.161 292.352,334.123 292.097,332.167 292.573 M250.667 294.667 L 250.667 296.667 253.833 296.667 L 257.000 296.667 257.000 302.667 L 257.000 308.667 259.667 308.667 L 262.333 308.667 262.333 300.667 L 262.333 292.667 256.500 292.667 L 250.667 292.667 250.667 294.667 M278.309 296.545 C 279.770 298.402,278.411 300.760,276.200 300.205 C 274.032 299.661,274.589 295.667,276.833 295.667 C 277.284 295.667,277.912 296.040,278.309 296.545 M86.008 297.586 C 87.419 299.379,86.619 304.081,84.827 304.531 C 82.469 305.123,81.155 303.361,81.402 299.940 C 81.645 296.581,84.193 295.278,86.008 297.586 M299.057 296.885 C 300.467 298.161,299.883 298.667,297.000 298.667 C 294.036 298.667,293.615 298.280,295.212 297.024 C 296.276 296.187,298.208 296.117,299.057 296.885 M240.355 297.012 C 241.486 297.617,241.303 303.046,240.122 303.976 C 237.308 306.189,234.582 301.709,236.493 298.014 C 237.186 296.673,238.895 296.230,240.355 297.012 M144.333 302.492 C 144.333 303.919,143.266 304.736,141.337 304.787 C 138.056 304.873,138.905 302.124,142.333 301.561 C 144.265 301.244,144.333 301.276,144.333 302.492 M337.667 302.492 C 337.667 303.919,336.599 304.736,334.670 304.787 C 331.390 304.873,332.239 302.124,335.667 301.561 C 337.598 301.244,337.667 301.276,337.667 302.492 M280.473 309.536 C 281.429 309.903,281.081 311.000,279.844 311.517 C 276.758 312.806,272.155 311.290,273.889 309.556 C 274.167 309.278,279.757 309.261,280.473 309.536 M113.079 336.786 C 146.585 358.401,186.961 366.699,226.667 360.130 C 247.404 356.699,266.818 349.297,285.300 337.774 L 289.767 334.989 298.574 335.078 L 307.381 335.167 303.274 338.194 C 240.571 384.415,154.601 383.906,95.064 336.962 L 92.576 335.000 101.443 335.000 L 110.310 335.000 113.079 336.786 M278.541 336.183 C 237.120 361.159,183.224 364.440,138.158 344.728 C 132.839 342.402,120.648 336.068,119.694 335.136 C 119.618 335.061,155.768 335.000,200.028 335.001 L 280.500 335.002 278.541 336.183 " stroke="none" fill="#ebebeb" fill-rule="evenodd"></path><path id="path1" d="M196.250 27.569 C 196.662 27.648,197.338 27.648,197.750 27.569 C 198.162 27.489,197.825 27.424,197.000 27.424 C 196.175 27.424,195.838 27.489,196.250 27.569 M202.083 27.563 C 202.404 27.647,202.929 27.647,203.250 27.563 C 203.571 27.479,203.308 27.411,202.667 27.411 C 202.025 27.411,201.762 27.479,202.083 27.563 M196.250 47.569 C 196.662 47.648,197.338 47.648,197.750 47.569 C 198.162 47.489,197.825 47.424,197.000 47.424 C 196.175 47.424,195.838 47.489,196.250 47.569 M86.667 89.500 C 85.301 90.875,84.258 92.000,84.350 92.000 C 84.442 92.000,85.634 90.875,87.000 89.500 C 88.366 88.125,89.408 87.000,89.317 87.000 C 89.225 87.000,88.032 88.125,86.667 89.500 M312.653 89.083 C 313.470 89.954,314.183 90.667,314.236 90.667 C 314.486 90.667,314.222 90.367,312.750 88.986 L 311.167 87.500 312.653 89.083 M307.333 90.833 C 307.955 91.475,308.539 92.000,308.631 92.000 C 308.722 92.000,308.289 91.475,307.667 90.833 C 307.045 90.192,306.461 89.667,306.369 89.667 C 306.278 89.667,306.711 90.192,307.333 90.833 M310.667 94.104 C 310.667 94.162,311.154 94.649,311.750 95.188 L 312.833 96.167 311.854 95.083 C 310.942 94.074,310.667 93.847,310.667 94.104 M121.166 125.750 L 92.500 154.500 121.250 125.834 L 150.000 97.168 168.916 116.001 L 187.833 134.833 169.001 115.917 C 158.643 105.513,150.093 97.000,150.000 97.000 C 149.908 97.000,136.932 109.938,121.166 125.750 M230.499 116.417 L 211.167 135.833 230.584 116.501 L 250.000 97.168 278.750 125.834 L 307.500 154.500 278.834 125.750 C 263.068 109.938,250.092 97.000,250.000 97.000 C 249.907 97.000,241.132 105.737,230.499 116.417 M215.833 163.000 C 218.211 165.383,220.232 167.333,220.324 167.333 C 220.415 167.333,218.545 165.383,216.167 163.000 C 213.789 160.617,211.768 158.667,211.676 158.667 C 211.585 158.667,213.455 160.617,215.833 163.000 M63.146 165.417 L 62.167 166.500 63.250 165.521 C 63.846 164.983,64.333 164.495,64.333 164.438 C 64.333 164.180,64.058 164.407,63.146 165.417 M232.333 179.420 C 232.333 179.467,235.296 182.430,238.917 186.003 L 245.500 192.500 239.003 185.917 C 232.967 179.800,232.333 179.183,232.333 179.420 M204.154 193.083 L 202.500 194.833 204.250 193.179 C 205.876 191.642,206.153 191.333,205.904 191.333 C 205.851 191.333,205.064 192.121,204.154 193.083 M27.411 195.000 C 27.411 195.642,27.479 195.904,27.563 195.583 C 27.647 195.262,27.647 194.737,27.563 194.417 C 27.479 194.096,27.411 194.358,27.411 195.000 M372.417 196.500 C 372.421 197.233,372.489 197.494,372.569 197.079 C 372.649 196.665,372.646 196.065,372.562 195.746 C 372.479 195.427,372.414 195.767,372.417 196.500 M27.424 203.333 C 27.424 204.158,27.489 204.496,27.569 204.083 C 27.648 203.671,27.648 202.996,27.569 202.583 C 27.489 202.171,27.424 202.508,27.424 203.333 M372.417 203.167 C 372.421 203.900,372.489 204.161,372.569 203.746 C 372.649 203.331,372.646 202.731,372.562 202.413 C 372.479 202.094,372.414 202.433,372.417 203.167 M240.783 289.000 C 240.783 290.558,240.841 291.196,240.911 290.417 C 240.981 289.637,240.981 288.362,240.911 287.583 C 240.841 286.804,240.783 287.442,240.783 289.000 M73.411 294.667 C 73.411 295.308,73.479 295.571,73.563 295.250 C 73.647 294.929,73.647 294.404,73.563 294.083 C 73.479 293.762,73.411 294.025,73.411 294.667 M240.664 300.265 L 240.829 303.500 240.928 300.530 C 240.983 298.897,240.909 297.441,240.764 297.296 C 240.619 297.150,240.574 298.486,240.664 300.265 M221.800 303.833 C 221.800 306.583,221.852 307.664,221.915 306.235 C 221.977 304.806,221.977 302.556,221.914 301.235 C 221.851 299.914,221.800 301.083,221.800 303.833 M318.467 303.833 C 318.467 306.583,318.519 307.664,318.581 306.235 C 318.644 304.806,318.644 302.556,318.581 301.235 C 318.517 299.914,318.466 301.083,318.467 303.833 M202.083 357.563 C 202.404 357.647,202.929 357.647,203.250 357.563 C 203.571 357.479,203.308 357.411,202.667 357.411 C 202.025 357.411,201.762 357.479,202.083 357.563 M196.587 372.569 C 197.002 372.649,197.602 372.646,197.921 372.562 C 198.239 372.479,197.900 372.414,197.167 372.417 C 196.433 372.421,196.173 372.489,196.587 372.569 M201.917 372.569 C 202.329 372.648,203.004 372.648,203.417 372.569 C 203.829 372.489,203.492 372.424,202.667 372.424 C 201.842 372.424,201.504 372.489,201.917 372.569 " stroke="none" fill="#7a1a11" fill-rule="evenodd"></path><path id="path2" d="M199.083 22.572 C 199.588 22.648,200.412 22.648,200.917 22.572 C 201.421 22.496,201.008 22.433,200.000 22.433 C 198.992 22.433,198.579 22.496,199.083 22.572 M199.417 27.563 C 199.737 27.647,200.262 27.647,200.583 27.563 C 200.904 27.479,200.642 27.411,200.000 27.411 C 199.358 27.411,199.096 27.479,199.417 27.563 M199.928 42.579 C 200.896 42.647,202.396 42.646,203.261 42.578 C 204.126 42.509,203.333 42.454,201.500 42.455 C 199.667 42.456,198.959 42.512,199.928 42.579 M200.259 47.578 C 201.043 47.648,202.243 47.647,202.925 47.576 C 203.608 47.504,202.967 47.446,201.500 47.448 C 200.033 47.449,199.475 47.507,200.259 47.578 M323.000 72.092 C 323.000 72.142,324.162 73.305,325.583 74.675 L 328.167 77.167 325.675 74.583 C 323.361 72.184,323.000 71.848,323.000 72.092 M74.484 74.417 L 73.167 75.833 74.583 74.516 C 75.362 73.791,76.000 73.153,76.000 73.099 C 76.000 72.847,75.710 73.099,74.484 74.417 M309.333 85.771 C 309.333 85.828,309.821 86.316,310.417 86.854 L 311.500 87.833 310.521 86.750 C 309.608 85.740,309.333 85.513,309.333 85.771 M118.500 121.333 C 101.267 138.567,86.943 152.679,86.667 152.693 C 86.271 152.714,86.262 152.757,86.625 152.901 C 86.915 153.017,98.549 141.617,118.541 121.626 L 150.000 90.168 169.916 110.001 L 189.833 129.833 170.001 109.917 C 159.093 98.962,150.093 90.000,150.000 90.000 C 149.908 90.000,135.733 104.100,118.500 121.333 M229.499 110.417 L 209.167 130.833 229.584 110.501 L 250.000 90.168 281.418 121.584 C 298.697 138.863,312.911 153.000,313.005 153.000 C 313.098 153.000,298.997 138.825,281.668 121.500 C 264.340 104.175,250.088 90.000,249.997 90.000 C 249.906 90.000,240.682 99.188,229.499 110.417 M315.333 91.833 C 315.955 92.475,316.539 93.000,316.631 93.000 C 316.722 93.000,316.289 92.475,315.667 91.833 C 315.045 91.192,314.461 90.667,314.369 90.667 C 314.278 90.667,314.711 91.192,315.333 91.833 M89.667 93.500 C 88.301 94.875,87.258 96.000,87.350 96.000 C 87.442 96.000,88.634 94.875,90.000 93.500 C 91.366 92.125,92.408 91.000,92.317 91.000 C 92.225 91.000,91.032 92.125,89.667 93.500 M308.667 92.104 C 308.667 92.162,309.154 92.649,309.750 93.188 L 310.833 94.167 309.854 93.083 C 308.942 92.074,308.667 91.847,308.667 92.104 M213.424 149.667 C 213.424 150.492,213.489 150.829,213.569 150.417 C 213.648 150.004,213.648 149.329,213.569 148.917 C 213.489 148.504,213.424 148.842,213.424 149.667 M81.755 152.573 C 82.261 152.649,83.011 152.647,83.421 152.568 C 83.831 152.489,83.417 152.426,82.500 152.429 C 81.583 152.431,81.248 152.496,81.755 152.573 M317.421 152.573 C 317.928 152.649,318.678 152.647,319.088 152.568 C 319.498 152.489,319.083 152.426,318.167 152.429 C 317.250 152.431,316.915 152.496,317.421 152.573 M218.500 158.667 C 221.429 161.600,223.901 164.000,223.992 164.000 C 224.084 164.000,221.762 161.600,218.833 158.667 C 215.904 155.733,213.433 153.333,213.341 153.333 C 213.249 153.333,215.571 155.733,218.500 158.667 M298.812 165.417 L 297.833 166.500 298.917 165.521 C 299.512 164.983,300.000 164.495,300.000 164.438 C 300.000 164.180,299.725 164.407,298.812 165.417 M202.486 180.167 C 202.487 188.233,202.530 191.486,202.583 187.394 C 202.636 183.302,202.636 176.702,202.583 172.727 C 202.530 168.752,202.486 172.100,202.486 180.167 M197.486 179.833 C 197.486 187.533,197.530 190.636,197.583 186.728 C 197.636 182.819,197.636 176.519,197.583 172.728 C 197.529 168.936,197.486 172.133,197.486 179.833 M235.333 175.420 C 235.333 175.467,238.296 178.430,241.917 182.003 L 248.500 188.500 242.003 181.917 C 235.967 175.800,235.333 175.183,235.333 175.420 M123.243 177.574 C 123.834 177.648,124.884 177.649,125.576 177.577 C 126.267 177.504,125.783 177.444,124.500 177.443 C 123.217 177.441,122.651 177.500,123.243 177.574 M274.589 177.575 C 275.188 177.649,276.088 177.648,276.589 177.572 C 277.090 177.495,276.600 177.435,275.500 177.437 C 274.400 177.438,273.990 177.501,274.589 177.575 M212.331 191.917 L 202.500 201.833 212.417 192.002 C 221.632 182.866,222.483 182.000,222.248 182.000 C 222.201 182.000,217.738 186.463,212.331 191.917 M124.083 182.563 C 124.404 182.647,124.929 182.647,125.250 182.563 C 125.571 182.479,125.308 182.411,124.667 182.411 C 124.025 182.411,123.763 182.479,124.083 182.563 M40.077 194.667 C 40.077 195.308,40.146 195.571,40.230 195.250 C 40.314 194.929,40.314 194.404,40.230 194.083 C 40.146 193.762,40.077 194.025,40.077 194.667 M354.744 196.000 C 354.744 196.642,354.813 196.904,354.896 196.583 C 354.980 196.262,354.980 195.737,354.896 195.417 C 354.813 195.096,354.744 195.358,354.744 196.000 M22.455 198.833 C 22.456 200.667,22.512 201.374,22.579 200.405 C 22.647 199.437,22.646 197.937,22.578 197.072 C 22.509 196.207,22.454 197.000,22.455 198.833 M27.445 199.000 C 27.445 200.375,27.504 200.938,27.576 200.250 C 27.648 199.563,27.648 198.438,27.576 197.750 C 27.504 197.063,27.445 197.625,27.445 199.000 M377.443 199.833 C 377.444 201.117,377.504 201.601,377.577 200.909 C 377.649 200.218,377.648 199.168,377.574 198.576 C 377.500 197.984,377.441 198.550,377.443 199.833 M372.429 199.833 C 372.431 200.750,372.496 201.085,372.573 200.579 C 372.649 200.072,372.647 199.322,372.568 198.912 C 372.489 198.502,372.426 198.917,372.429 199.833 M197.440 203.000 C 197.440 204.192,197.501 204.679,197.574 204.083 C 197.648 203.487,197.648 202.512,197.574 201.917 C 197.501 201.321,197.440 201.808,197.440 203.000 M202.429 203.500 C 202.431 204.417,202.496 204.752,202.573 204.245 C 202.649 203.739,202.647 202.989,202.568 202.579 C 202.489 202.169,202.426 202.583,202.429 203.500 M197.489 232.500 C 197.489 242.217,197.531 246.144,197.583 241.227 C 197.635 236.309,197.635 228.359,197.583 223.560 C 197.531 218.760,197.488 222.783,197.489 232.500 M202.489 232.500 C 202.489 242.217,202.531 246.144,202.583 241.227 C 202.635 236.309,202.635 228.359,202.583 223.560 C 202.531 218.760,202.488 222.783,202.489 232.500 M260.000 284.540 C 261.935 284.788,265.001 284.814,265.001 284.583 C 265.000 284.446,263.688 284.356,262.083 284.383 C 260.479 284.411,259.542 284.481,260.000 284.540 M155.750 286.248 C 157.171 286.310,159.496 286.310,160.917 286.248 C 162.337 286.185,161.175 286.134,158.333 286.134 C 155.492 286.134,154.329 286.185,155.750 286.248 M242.250 286.244 C 243.029 286.314,244.304 286.314,245.083 286.244 C 245.862 286.174,245.225 286.116,243.667 286.116 C 242.108 286.116,241.471 286.174,242.250 286.244 M155.492 290.573 C 156.588 290.645,157.612 290.883,157.767 291.102 C 157.966 291.381,158.010 291.350,157.916 291.000 C 157.814 290.626,157.243 290.493,155.640 290.471 L 153.500 290.441 155.492 290.573 M98.083 292.576 C 98.771 292.648,99.896 292.648,100.583 292.576 C 101.271 292.504,100.708 292.445,99.333 292.445 C 97.958 292.445,97.396 292.504,98.083 292.576 M125.417 292.578 C 126.287 292.647,127.712 292.647,128.583 292.578 C 129.454 292.510,128.742 292.453,127.000 292.453 C 125.258 292.453,124.546 292.510,125.417 292.578 M202.804 298.167 C 202.805 301.467,202.855 302.772,202.915 301.066 C 202.976 299.361,202.976 296.661,202.915 295.066 C 202.854 293.472,202.804 294.867,202.804 298.167 M212.750 292.576 C 213.438 292.648,214.563 292.648,215.250 292.576 C 215.938 292.504,215.375 292.445,214.000 292.445 C 212.625 292.445,212.063 292.504,212.750 292.576 M253.400 292.581 C 254.995 292.642,257.695 292.643,259.400 292.582 C 261.105 292.521,259.800 292.471,256.500 292.471 C 253.200 292.471,251.805 292.520,253.400 292.581 M280.917 292.579 C 281.879 292.646,283.454 292.646,284.417 292.579 C 285.379 292.512,284.592 292.457,282.667 292.457 C 280.742 292.457,279.954 292.512,280.917 292.579 M309.417 292.576 C 310.104 292.648,311.229 292.648,311.917 292.576 C 312.604 292.504,312.042 292.445,310.667 292.445 C 309.292 292.445,308.729 292.504,309.417 292.576 M283.917 296.569 C 284.329 296.648,285.004 296.648,285.417 296.569 C 285.829 296.489,285.492 296.424,284.667 296.424 C 283.842 296.424,283.504 296.489,283.917 296.569 M115.256 296.908 C 115.855 296.982,116.755 296.981,117.256 296.905 C 117.757 296.829,117.267 296.768,116.167 296.770 C 115.067 296.772,114.657 296.834,115.256 296.908 M123.889 296.889 C 123.767 297.011,123.669 297.274,123.672 297.472 C 123.675 297.697,123.774 297.681,123.933 297.431 C 124.092 297.180,125.318 296.986,127.178 296.916 L 130.167 296.804 127.139 296.735 C 125.474 296.698,124.011 296.767,123.889 296.889 M253.489 296.909 C 255.318 296.982,256.589 297.184,256.764 297.431 C 256.968 297.717,257.012 297.689,256.915 297.333 C 256.807 296.936,256.135 296.829,253.640 296.812 L 250.500 296.790 253.489 296.909 M157.751 302.167 C 157.754 302.900,157.823 303.161,157.902 302.746 C 157.982 302.331,157.979 301.731,157.896 301.413 C 157.812 301.094,157.747 301.433,157.751 302.167 M196.760 357.579 C 197.636 357.648,198.986 357.647,199.760 357.577 C 200.534 357.507,199.817 357.451,198.167 357.452 C 196.517 357.453,195.884 357.510,196.760 357.579 M195.750 362.572 C 196.254 362.648,197.079 362.648,197.583 362.572 C 198.088 362.496,197.675 362.433,196.667 362.433 C 195.658 362.433,195.246 362.496,195.750 362.572 M202.583 362.569 C 202.996 362.648,203.671 362.648,204.083 362.569 C 204.496 362.489,204.158 362.424,203.333 362.424 C 202.508 362.424,202.171 362.489,202.583 362.569 M199.587 372.569 C 200.002 372.649,200.602 372.646,200.921 372.562 C 201.239 372.479,200.900 372.414,200.167 372.417 C 199.433 372.421,199.173 372.489,199.587 372.569 M198.923 377.575 C 199.522 377.649,200.422 377.648,200.923 377.572 C 201.424 377.495,200.933 377.435,199.833 377.437 C 198.733 377.438,198.324 377.501,198.923 377.575 " stroke="none" fill="#7a1a11" fill-rule="evenodd"></path><path id="path3" d="M195.083 22.572 C 195.588 22.648,196.412 22.648,196.917 22.572 C 197.421 22.496,197.008 22.433,196.000 22.433 C 194.992 22.433,194.579 22.496,195.083 22.572 M203.083 22.572 C 203.588 22.648,204.412 22.648,204.917 22.572 C 205.421 22.496,205.008 22.433,204.000 22.433 C 202.992 22.433,202.579 22.496,203.083 22.572 M195.083 42.572 C 195.588 42.648,196.412 42.648,196.917 42.572 C 197.421 42.496,197.008 42.433,196.000 42.433 C 194.992 42.433,194.579 42.496,195.083 42.572 M208.417 47.896 C 208.737 47.980,209.262 47.980,209.583 47.896 C 209.904 47.813,209.642 47.744,209.000 47.744 C 208.358 47.744,208.096 47.813,208.417 47.896 M77.151 71.750 L 75.833 73.167 77.250 71.849 C 78.029 71.124,78.667 70.487,78.667 70.432 C 78.667 70.180,78.376 70.433,77.151 71.750 M317.500 74.000 C 318.216 74.733,318.877 75.333,318.969 75.333 C 319.060 75.333,318.549 74.733,317.833 74.000 C 317.117 73.267,316.456 72.667,316.365 72.667 C 316.273 72.667,316.784 73.267,317.500 74.000 M81.315 74.917 L 80.167 76.167 81.417 75.018 C 82.580 73.949,82.820 73.667,82.565 73.667 C 82.510 73.667,81.947 74.229,81.315 74.917 M71.667 77.167 C 70.857 77.992,70.270 78.667,70.361 78.667 C 70.453 78.667,71.190 77.992,72.000 77.167 C 72.810 76.342,73.397 75.667,73.305 75.667 C 73.214 75.667,72.476 76.342,71.667 77.167 M73.812 82.417 L 72.833 83.500 73.917 82.521 C 74.926 81.608,75.153 81.333,74.896 81.333 C 74.838 81.333,74.351 81.821,73.812 82.417 M185.112 148.667 C 185.112 150.042,185.171 150.604,185.243 149.917 C 185.315 149.229,185.315 148.104,185.243 147.417 C 185.171 146.729,185.112 147.292,185.112 148.667 M336.333 165.500 C 336.955 166.142,337.539 166.667,337.631 166.667 C 337.722 166.667,337.289 166.142,336.667 165.500 C 336.045 164.858,335.461 164.333,335.369 164.333 C 335.278 164.333,335.711 164.858,336.333 165.500 M189.833 186.333 C 193.864 190.367,197.236 193.667,197.328 193.667 C 197.419 193.667,194.197 190.367,190.167 186.333 C 186.136 182.300,182.764 179.000,182.672 179.000 C 182.581 179.000,185.803 182.300,189.833 186.333 M22.417 193.833 C 22.421 194.567,22.489 194.827,22.569 194.413 C 22.649 193.998,22.646 193.398,22.562 193.079 C 22.479 192.761,22.414 193.100,22.417 193.833 M377.411 195.333 C 377.411 195.975,377.479 196.237,377.563 195.917 C 377.647 195.596,377.647 195.071,377.563 194.750 C 377.479 194.429,377.411 194.692,377.411 195.333 M45.077 197.000 C 45.077 197.642,45.146 197.904,45.230 197.583 C 45.314 197.262,45.314 196.737,45.230 196.417 C 45.146 196.096,45.077 196.358,45.077 197.000 M354.762 198.500 C 354.765 199.417,354.829 199.752,354.906 199.245 C 354.982 198.739,354.980 197.989,354.901 197.579 C 354.822 197.169,354.760 197.583,354.762 198.500 M22.433 204.333 C 22.433 205.342,22.496 205.754,22.572 205.250 C 22.648 204.746,22.648 203.921,22.572 203.417 C 22.496 202.912,22.433 203.325,22.433 204.333 M377.433 204.333 C 377.433 205.342,377.496 205.754,377.572 205.250 C 377.648 204.746,377.648 203.921,377.572 203.417 C 377.496 202.912,377.433 203.325,377.433 204.333 M268.000 216.438 C 268.000 216.495,268.487 216.983,269.083 217.521 L 270.167 218.500 269.188 217.417 C 268.275 216.407,268.000 216.180,268.000 216.438 M126.146 222.417 L 125.167 223.500 126.250 222.521 C 127.260 221.608,127.487 221.333,127.229 221.333 C 127.172 221.333,126.684 221.821,126.146 222.417 M279.667 221.438 C 279.667 221.495,280.154 221.983,280.750 222.521 L 281.833 223.500 280.854 222.417 C 279.942 221.407,279.667 221.180,279.667 221.438 M284.333 226.438 C 284.333 226.495,284.821 226.983,285.417 227.521 L 286.500 228.500 285.521 227.417 C 284.608 226.407,284.333 226.180,284.333 226.438 M109.812 232.417 L 108.833 233.500 109.917 232.521 C 110.926 231.608,111.153 231.333,110.896 231.333 C 110.838 231.333,110.351 231.821,109.812 232.417 M286.333 236.104 C 286.333 236.162,286.821 236.649,287.417 237.188 L 288.500 238.167 287.521 237.083 C 286.608 236.074,286.333 235.847,286.333 236.104 M291.000 241.104 C 291.000 241.162,291.487 241.649,292.083 242.188 L 293.167 243.167 292.188 242.083 C 291.275 241.074,291.000 240.847,291.000 241.104 M295.667 246.104 C 295.667 246.162,296.154 246.649,296.750 247.188 L 297.833 248.167 296.854 247.083 C 295.942 246.074,295.667 245.847,295.667 246.104 M302.667 246.104 C 302.667 246.162,303.154 246.649,303.750 247.188 L 304.833 248.167 303.854 247.083 C 302.942 246.074,302.667 245.847,302.667 246.104 M258.083 290.239 C 258.587 290.315,259.412 290.315,259.917 290.239 C 260.421 290.162,260.008 290.100,259.000 290.100 C 257.992 290.100,257.579 290.162,258.083 290.239 M197.138 298.167 C 197.138 301.467,197.188 302.772,197.249 301.066 C 197.309 299.361,197.309 296.661,197.248 295.066 C 197.187 293.472,197.137 294.867,197.138 298.167 M262.478 300.500 C 262.478 305.083,262.525 307.005,262.582 304.769 C 262.640 302.534,262.640 298.784,262.583 296.436 C 262.525 294.088,262.478 295.917,262.478 300.500 M286.109 294.500 C 286.111 295.783,286.171 296.267,286.243 295.576 C 286.315 294.884,286.314 293.834,286.241 293.243 C 286.167 292.651,286.108 293.217,286.109 294.500 M118.120 300.000 C 118.120 301.742,118.176 302.454,118.245 301.583 C 118.314 300.712,118.314 299.287,118.245 298.417 C 118.176 297.546,118.120 298.258,118.120 300.000 M63.421 297.573 C 63.928 297.649,64.678 297.647,65.088 297.568 C 65.498 297.489,65.083 297.426,64.167 297.429 C 63.250 297.431,62.915 297.496,63.421 297.573 M304.757 300.000 C 304.757 300.825,304.822 301.162,304.902 300.750 C 304.981 300.337,304.981 299.662,304.902 299.250 C 304.822 298.837,304.757 299.175,304.757 300.000 M81.417 300.500 C 81.421 301.233,81.489 301.494,81.569 301.079 C 81.649 300.665,81.646 300.065,81.562 299.746 C 81.479 299.427,81.414 299.767,81.417 300.500 M236.084 300.500 C 236.088 301.233,236.156 301.494,236.236 301.079 C 236.315 300.665,236.312 300.065,236.229 299.746 C 236.146 299.427,236.080 299.767,236.084 300.500 M277.259 305.244 C 278.043 305.315,279.243 305.314,279.925 305.242 C 280.608 305.171,279.967 305.113,278.500 305.114 C 277.033 305.115,276.475 305.174,277.259 305.244 M276.083 309.572 C 276.587 309.648,277.412 309.648,277.917 309.572 C 278.421 309.496,278.008 309.433,277.000 309.433 C 275.992 309.433,275.579 309.496,276.083 309.572 M195.088 377.573 C 195.595 377.649,196.345 377.647,196.755 377.568 C 197.165 377.489,196.750 377.426,195.833 377.429 C 194.917 377.431,194.581 377.496,195.088 377.573 M202.917 377.569 C 203.329 377.648,204.004 377.648,204.417 377.569 C 204.829 377.489,204.492 377.424,203.667 377.424 C 202.842 377.424,202.504 377.489,202.917 377.569 " stroke="none" fill="#7a1a11" fill-rule="evenodd"></path><path id="path4" d="M0.000 200.000 L 0.000 400.000 200.000 400.000 L 400.000 400.000 400.000 200.000 L 400.000 0.000 200.000 0.000 L 0.000 0.000 0.000 200.000 M216.000 23.142 C 294.234 30.271,358.109 87.417,374.001 164.500 C 380.560 196.315,377.916 231.266,366.665 261.471 L 365.000 265.942 365.000 300.471 L 365.000 335.000 340.250 335.009 L 315.500 335.019 310.716 338.848 C 249.395 387.933,162.439 390.609,98.006 345.392 C 93.627 342.319,88.460 338.350,85.916 336.104 L 84.665 335.000 59.832 335.000 L 35.000 335.000 35.000 300.398 L 35.000 265.796 33.693 262.443 C 22.498 233.716,19.513 198.720,25.531 166.735 C 40.200 88.761,107.311 28.464,185.500 23.008 C 188.250 22.816,191.250 22.608,192.167 22.544 C 195.803 22.293,210.811 22.670,216.000 23.142 M190.167 27.866 C 162.383 29.948,138.774 36.756,116.667 49.063 C 50.679 85.796,16.197 160.344,31.047 234.167 C 32.895 243.352,35.832 253.513,38.947 261.500 L 40.247 264.833 46.290 264.924 C 49.707 264.976,52.333 264.885,52.333 264.716 C 52.333 264.551,51.966 263.585,51.516 262.569 C 48.657 256.102,44.191 240.672,42.526 231.500 C 22.649 122.019,116.889 26.498,226.833 44.689 C 293.245 55.677,346.578 108.896,357.823 175.400 C 359.847 187.364,360.603 207.958,359.395 218.167 C 357.461 234.509,353.985 248.793,348.833 261.570 C 348.192 263.161,347.667 264.587,347.667 264.739 C 347.667 264.891,350.381 264.974,353.697 264.924 L 359.728 264.833 360.557 262.833 C 363.590 255.510,367.771 240.741,369.475 231.333 C 386.919 135.019,321.936 44.022,225.333 29.489 C 216.619 28.179,197.670 27.304,190.167 27.866 M190.667 47.861 C 190.025 47.934,187.625 48.153,185.333 48.348 C 124.640 53.515,71.058 96.689,52.350 155.500 C 49.883 163.256,47.427 174.010,48.128 173.988 C 48.640 173.972,52.381 173.070,52.479 172.939 C 52.522 172.881,53.020 171.832,53.584 170.607 C 58.851 159.174,71.483 151.627,83.975 152.451 L 87.167 152.662 118.583 121.248 L 150.000 89.835 169.803 109.636 L 189.607 129.438 191.014 126.638 C 193.442 121.810,198.304 115.333,199.500 115.333 C 200.679 115.333,205.601 122.184,207.943 127.084 L 209.497 130.334 229.749 110.085 L 250.000 89.835 281.328 121.161 L 312.655 152.487 317.411 152.509 C 330.266 152.567,341.012 159.358,346.372 170.810 C 347.310 172.815,347.503 173.019,348.779 173.350 C 349.542 173.547,350.661 173.840,351.265 173.999 C 352.211 174.248,352.342 174.210,352.205 173.727 C 352.117 173.419,351.874 172.267,351.664 171.167 C 340.849 114.553,294.635 66.308,237.833 52.333 C 223.374 48.775,201.180 46.671,190.667 47.861 M121.385 125.782 L 92.938 154.230 95.523 155.457 C 103.616 159.301,109.328 166.175,112.179 175.500 C 113.342 179.304,113.043 179.104,116.343 178.283 C 134.204 173.839,154.577 185.258,160.646 203.116 L 161.230 204.833 179.282 204.920 L 197.333 205.006 197.333 202.999 L 197.333 200.991 188.003 191.669 C 179.165 182.840,178.627 182.365,177.814 182.674 C 170.743 185.362,160.856 171.277,161.548 159.500 C 161.670 157.432,161.513 157.563,163.583 157.798 C 175.210 159.114,186.816 170.848,183.202 177.632 L 182.599 178.764 189.966 186.131 L 197.333 193.498 197.333 179.755 L 197.333 166.013 196.417 165.810 C 186.147 163.536,182.554 153.018,186.790 137.623 L 187.582 134.746 168.873 116.040 C 158.583 105.751,150.090 97.333,149.998 97.333 C 149.907 97.333,137.031 110.135,121.385 125.782 M230.611 116.583 L 211.391 135.833 212.171 138.868 C 213.179 142.791,213.802 148.208,213.567 151.010 L 213.381 153.222 218.611 158.445 C 224.575 164.400,223.863 164.001,225.916 162.539 C 231.120 158.833,239.417 156.484,239.732 158.628 C 240.186 161.720,238.745 168.341,236.580 173.104 L 235.549 175.376 242.006 181.839 L 248.463 188.303 250.148 186.894 C 259.777 178.840,272.414 175.576,283.464 178.288 C 285.094 178.689,286.471 178.973,286.523 178.921 C 286.575 178.869,287.096 177.328,287.681 175.497 C 291.030 165.004,297.184 158.082,306.216 154.648 C 307.118 154.305,306.707 153.875,278.650 125.817 C 262.985 110.151,250.092 97.333,250.000 97.333 C 249.907 97.333,241.182 105.996,230.611 116.583 M77.000 158.163 C 67.766 160.234,60.899 166.103,57.480 174.844 C 56.391 177.631,56.151 177.852,53.911 178.139 C 49.529 178.699,46.772 179.874,46.548 181.277 C 45.986 184.787,45.327 193.803,45.251 199.000 L 45.167 204.833 100.439 204.918 L 155.712 205.002 155.491 204.251 C 154.084 199.472,149.186 192.935,144.333 189.359 C 134.957 182.450,125.214 181.002,112.845 184.679 C 108.634 185.931,109.160 186.255,108.485 181.991 C 105.848 165.338,91.940 154.813,77.000 158.163 M313.254 158.011 C 301.761 159.946,293.512 168.862,291.486 181.538 C 290.754 186.119,291.117 185.903,286.466 184.530 C 268.535 179.235,249.944 187.673,244.529 203.566 L 244.040 205.002 299.437 204.918 L 354.833 204.833 354.740 199.333 C 354.646 193.723,354.292 188.562,353.630 183.118 L 353.260 180.070 351.206 179.395 C 350.076 179.025,347.891 178.482,346.349 178.190 C 344.808 177.897,343.524 177.622,343.495 177.579 C 343.467 177.536,342.949 176.255,342.344 174.733 C 337.605 162.805,325.638 155.926,313.254 158.011 M210.509 160.842 C 208.994 163.041,207.122 164.421,204.541 165.241 L 202.676 165.833 202.671 180.164 L 202.667 194.495 210.645 186.522 L 218.623 178.549 218.154 177.643 C 216.924 175.263,217.347 172.009,219.285 168.960 L 220.263 167.421 216.030 163.196 L 211.796 158.972 210.509 160.842 M231.299 180.589 C 228.765 182.800,225.935 183.524,223.347 182.621 L 222.261 182.243 212.464 192.036 L 202.667 201.829 202.667 203.415 L 202.667 205.000 220.614 205.000 L 238.561 205.000 238.978 203.583 C 239.675 201.218,241.884 196.759,243.514 194.427 L 245.055 192.223 238.743 185.912 L 232.432 179.601 231.299 180.589 M45.504 213.083 C 45.807 217.335,46.561 224.006,46.761 224.205 C 46.851 224.296,50.577 222.262,55.039 219.685 L 63.153 215.000 68.327 215.012 L 73.500 215.023 71.500 216.172 C 70.400 216.803,64.625 220.146,58.667 223.601 L 47.833 229.882 47.906 231.105 C 48.012 232.873,49.495 239.400,51.082 245.083 L 52.455 250.000 54.880 250.000 L 57.305 250.000 71.192 238.750 C 78.830 232.563,88.549 224.689,92.790 221.253 L 100.500 215.006 104.650 215.003 C 106.932 215.001,108.657 215.126,108.483 215.279 C 108.309 215.433,102.992 219.737,96.667 224.844 C 90.342 229.951,81.267 237.279,76.500 241.128 C 71.733 244.977,67.341 248.548,66.738 249.063 L 65.643 250.000 79.572 249.999 L 93.500 249.998 102.833 239.986 C 107.967 234.479,112.617 229.482,113.167 228.880 C 113.717 228.278,116.852 224.909,120.134 221.393 L 126.102 215.000 129.551 215.000 C 131.448 215.000,133.000 215.056,133.000 215.124 C 133.000 215.193,125.742 223.030,116.870 232.541 L 100.741 249.833 110.783 249.922 C 116.307 249.970,120.978 249.950,121.163 249.876 C 121.348 249.802,126.750 241.931,133.167 232.384 L 144.833 215.027 147.917 215.014 C 149.612 215.006,151.000 215.083,151.000 215.184 C 151.000 215.286,150.201 216.523,149.226 217.934 C 148.250 219.345,144.175 225.375,140.171 231.333 C 136.167 237.292,131.815 243.742,130.500 245.667 C 129.185 247.592,128.001 249.354,127.868 249.583 C 127.678 249.912,129.340 249.998,135.730 249.993 L 143.833 249.986 152.333 232.494 L 160.833 215.002 163.725 215.001 L 166.616 215.000 163.014 222.417 C 161.033 226.496,157.219 234.319,154.539 239.802 C 151.859 245.285,149.667 249.825,149.667 249.892 C 149.667 249.959,152.692 249.973,156.391 249.924 L 163.115 249.833 164.232 246.167 C 164.846 244.150,167.243 236.313,169.558 228.750 L 173.768 215.000 176.384 215.000 C 178.021 215.000,179.000 215.134,179.000 215.357 C 179.000 215.553,176.753 223.053,174.007 232.022 C 171.260 240.992,168.918 248.710,168.802 249.173 L 168.591 250.015 174.707 249.924 L 180.823 249.833 183.562 232.667 C 185.068 223.225,186.308 215.387,186.317 215.250 C 186.326 215.112,187.545 215.000,189.026 215.000 L 191.720 215.000 191.525 215.917 C 191.418 216.421,190.208 223.958,188.837 232.667 C 187.465 241.375,186.263 248.838,186.165 249.250 L 185.987 250.000 191.660 250.000 L 197.333 250.000 197.333 232.500 L 197.333 215.000 200.000 215.000 L 202.667 215.000 202.667 232.500 L 202.667 250.000 208.287 250.000 L 213.908 250.000 213.779 249.250 C 213.708 248.838,212.529 241.375,211.158 232.667 C 209.786 223.958,208.578 216.421,208.472 215.917 L 208.280 215.000 210.974 215.000 C 212.455 215.000,213.674 215.112,213.683 215.250 C 213.693 215.387,214.930 223.225,216.433 232.667 L 219.167 249.833 225.288 249.924 L 231.409 250.015 231.205 249.201 C 231.093 248.753,228.750 241.037,226.000 232.056 C 223.250 223.074,221.000 215.563,221.000 215.363 C 221.000 215.132,221.952 215.000,223.617 215.000 L 226.235 215.000 229.827 226.750 C 231.803 233.213,234.200 241.050,235.155 244.167 L 236.890 249.833 243.612 249.924 C 247.309 249.973,250.333 249.953,250.333 249.880 C 250.333 249.806,247.619 244.215,244.301 237.456 C 240.984 230.697,237.838 224.234,237.310 223.094 C 236.783 221.954,235.670 219.667,234.839 218.011 L 233.327 215.000 236.247 215.003 L 239.167 215.005 247.000 231.021 C 251.308 239.830,255.124 247.704,255.478 248.519 L 256.123 250.000 264.248 250.000 C 270.654 250.000,272.322 249.912,272.133 249.583 C 272.001 249.354,270.667 247.367,269.169 245.167 C 267.671 242.967,263.619 236.967,260.164 231.833 C 256.709 226.700,252.784 220.887,251.441 218.915 C 250.099 216.943,249.000 215.255,249.000 215.165 C 249.000 215.074,250.387 215.007,252.083 215.015 L 255.167 215.030 266.833 232.386 C 273.250 241.931,278.652 249.802,278.837 249.876 C 279.022 249.950,283.689 249.970,289.207 249.922 L 299.241 249.833 283.121 232.545 C 274.254 223.036,267.000 215.199,267.000 215.128 C 267.000 215.058,268.553 215.000,270.452 215.000 L 273.904 215.000 290.202 232.497 L 306.500 249.995 320.435 249.997 L 334.370 250.000 329.768 246.244 C 327.237 244.178,317.667 236.428,308.500 229.022 C 299.333 221.616,291.691 215.432,291.517 215.279 C 291.343 215.125,293.068 215.001,295.350 215.001 L 299.500 215.002 311.500 224.726 C 318.100 230.074,327.814 237.955,333.086 242.240 L 342.673 250.029 345.073 249.931 L 347.474 249.833 348.243 247.333 C 350.646 239.530,352.573 230.420,351.947 229.831 C 351.701 229.600,346.925 226.786,341.333 223.577 C 335.742 220.368,330.117 217.128,328.833 216.377 L 326.500 215.012 331.683 215.006 L 336.865 215.000 344.971 219.684 C 349.429 222.260,353.143 224.302,353.224 224.221 C 353.409 224.035,354.192 217.157,354.490 213.083 L 354.717 210.000 200.000 210.000 L 45.283 210.000 45.504 213.083 M54.333 255.215 C 54.333 255.333,55.190 257.583,56.237 260.215 L 58.140 265.000 199.922 265.000 L 341.703 265.000 342.556 263.083 C 343.408 261.169,345.667 255.399,345.667 255.138 C 345.667 255.062,280.117 255.000,200.000 255.000 C 119.883 255.000,54.333 255.097,54.333 255.215 M40.000 300.000 L 40.000 330.000 200.000 330.000 L 360.000 330.000 360.000 300.000 L 360.000 270.000 200.000 270.000 L 40.000 270.000 40.000 300.000 M265.000 284.535 C 265.000 284.647,264.017 285.997,262.815 287.535 L 260.630 290.333 258.649 290.333 C 256.290 290.333,256.300 290.382,258.004 286.993 L 259.341 284.333 262.170 284.333 C 263.727 284.333,265.000 284.424,265.000 284.535 M163.506 294.711 C 163.523 304.730,163.447 304.478,166.377 304.266 L 168.281 304.128 168.807 306.002 C 169.488 308.430,169.548 308.249,167.917 308.691 C 160.207 310.777,157.672 307.865,157.669 296.917 L 157.667 290.667 155.500 290.667 L 153.333 290.667 153.333 288.325 L 153.333 285.983 158.412 286.075 L 163.491 286.167 163.506 294.711 M246.333 297.333 L 246.333 308.667 244.022 308.667 C 242.011 308.667,241.684 308.581,241.502 308.005 C 241.294 307.350,241.283 307.351,240.351 308.040 C 237.241 310.339,232.676 308.825,231.094 304.969 C 228.159 297.821,233.926 289.333,239.486 292.614 L 240.667 293.311 240.667 289.655 L 240.667 286.000 243.500 286.000 L 246.333 286.000 246.333 297.333 M69.034 288.046 C 77.193 290.778,74.534 301.480,65.583 301.934 L 62.667 302.082 62.667 305.374 L 62.667 308.667 59.833 308.667 L 57.000 308.667 57.000 298.167 L 57.000 287.667 62.450 287.667 C 65.639 287.667,68.371 287.824,69.034 288.046 M207.667 290.000 L 207.667 292.333 205.333 292.333 L 203.000 292.333 203.000 298.167 L 203.000 304.000 205.333 304.000 L 207.667 304.000 207.667 306.333 L 207.667 308.667 200.000 308.667 L 192.333 308.667 192.333 306.333 L 192.333 304.000 194.667 304.000 L 197.000 304.000 197.000 298.167 L 197.000 292.333 194.667 292.333 L 192.333 292.333 192.333 290.000 L 192.333 287.667 200.000 287.667 L 207.667 287.667 207.667 290.000 M123.750 288.295 C 123.888 288.316,124.000 289.233,124.000 290.333 L 124.000 292.333 127.167 292.333 L 130.333 292.333 130.333 294.667 L 130.333 297.000 127.167 297.000 L 124.000 297.000 124.000 300.115 C 124.000 304.215,125.040 305.194,128.553 304.398 L 129.939 304.085 130.451 306.116 C 131.040 308.456,131.101 308.301,129.443 308.695 C 121.999 310.467,118.363 307.893,118.064 300.638 L 117.914 297.000 116.124 297.000 L 114.333 297.000 114.333 294.850 L 114.333 292.700 116.324 292.475 C 118.454 292.234,118.421 292.268,118.835 289.834 C 119.118 288.167,120.353 287.780,123.750 288.295 M62.826 292.285 C 62.738 292.373,62.667 293.544,62.667 294.889 L 62.667 297.333 64.654 297.333 C 67.612 297.333,69.314 294.612,67.417 292.915 C 66.871 292.427,63.189 291.922,62.826 292.285 M87.875 292.936 C 95.782 296.970,92.829 309.087,83.950 309.044 C 74.267 308.998,72.403 295.330,81.665 292.291 C 83.046 291.838,86.406 292.187,87.875 292.936 M111.313 292.522 C 111.495 292.709,111.409 293.744,111.099 295.116 L 110.582 297.400 108.781 297.175 C 104.431 296.631,102.667 298.775,102.667 304.604 L 102.667 308.667 99.833 308.667 L 97.000 308.667 97.000 300.500 L 97.000 292.333 99.294 292.333 C 101.783 292.333,101.984 292.509,101.995 294.693 C 102.000 295.532,102.035 295.519,103.494 294.121 C 105.507 292.192,110.083 291.256,111.313 292.522 M146.632 293.021 C 149.371 294.560,149.815 295.868,149.944 302.765 L 150.054 308.697 147.611 308.598 C 145.410 308.510,145.157 308.430,145.066 307.792 C 144.966 307.096,144.932 307.101,143.151 308.065 C 137.748 310.992,132.123 306.890,134.543 301.789 C 135.441 299.898,137.581 298.952,142.750 298.161 C 144.202 297.939,144.365 297.456,143.145 296.992 C 141.825 296.490,140.174 296.603,138.273 297.325 C 137.320 297.688,136.515 297.950,136.485 297.909 C 134.420 295.046,134.370 294.103,136.244 293.300 C 139.886 291.739,144.148 291.625,146.632 293.021 M224.667 292.584 C 226.933 293.716,227.333 295.191,227.333 302.404 L 227.333 308.667 224.500 308.667 L 221.667 308.667 221.667 303.478 C 221.667 297.715,221.480 297.000,219.977 297.000 C 217.527 297.000,217.333 297.468,217.333 303.372 L 217.333 308.667 214.500 308.667 L 211.667 308.667 211.667 300.500 L 211.667 292.333 214.008 292.333 C 216.337 292.333,216.351 292.339,216.547 293.320 L 216.745 294.308 217.851 293.464 C 219.851 291.939,222.651 291.577,224.667 292.584 M283.417 292.331 L 286.333 292.333 286.333 294.500 L 286.333 296.667 284.917 296.666 L 283.500 296.666 283.608 298.250 C 283.830 301.491,281.530 303.393,277.201 303.548 C 274.868 303.632,274.500 303.726,274.500 304.239 C 274.500 304.763,274.950 304.856,278.333 305.028 C 284.537 305.342,286.559 306.533,286.256 309.692 C 285.919 313.193,283.040 315.019,277.466 315.267 C 270.385 315.581,266.710 312.557,270.079 309.187 C 271.181 308.086,271.212 307.994,270.657 307.491 C 269.467 306.415,269.638 304.290,271.033 302.800 C 271.630 302.163,271.641 302.060,271.156 301.658 C 269.692 300.443,269.189 297.225,270.166 295.334 C 271.375 292.996,273.928 291.943,277.833 292.173 C 279.300 292.259,281.813 292.330,283.417 292.331 M300.037 292.513 C 303.348 293.681,305.607 297.810,304.842 301.294 L 304.617 302.317 299.419 302.408 L 294.221 302.500 295.060 303.475 C 296.113 304.699,299.073 305.063,301.096 304.217 L 302.338 303.699 303.316 305.411 C 304.468 307.427,304.334 307.645,301.391 308.529 C 294.456 310.612,288.648 307.055,288.628 300.711 C 288.608 294.493,294.220 290.461,300.037 292.513 M321.333 292.584 C 323.599 293.716,324.000 295.191,324.000 302.404 L 324.000 308.667 321.167 308.667 L 318.333 308.667 318.333 303.478 C 318.333 297.715,318.147 297.000,316.643 297.000 C 314.194 297.000,314.000 297.468,314.000 303.372 L 314.000 308.667 311.167 308.667 L 308.333 308.667 308.333 300.500 L 308.333 292.333 310.675 292.333 C 313.003 292.333,313.018 292.339,313.214 293.320 L 313.412 294.308 314.517 293.464 C 316.517 291.939,319.318 291.577,321.333 292.584 M339.966 293.021 C 342.704 294.560,343.149 295.868,343.277 302.765 L 343.388 308.697 340.944 308.598 C 338.743 308.510,338.490 308.430,338.399 307.792 C 338.300 307.096,338.265 307.101,336.485 308.065 C 331.081 310.992,325.456 306.890,327.877 301.789 C 328.774 299.898,330.914 298.952,336.083 298.161 C 337.535 297.939,337.698 297.456,336.478 296.992 C 335.159 296.490,333.508 296.603,331.607 297.325 C 330.653 297.688,329.849 297.950,329.819 297.909 C 327.753 295.046,327.704 294.103,329.577 293.300 C 333.219 291.739,337.481 291.625,339.966 293.021 M262.667 300.500 L 262.667 308.667 259.667 308.667 L 256.667 308.667 256.667 302.833 L 256.667 297.000 253.667 297.000 L 250.667 297.000 250.667 294.667 L 250.667 292.333 256.667 292.333 L 262.667 292.333 262.667 300.500 M275.524 296.524 C 274.284 297.764,275.126 300.000,276.833 300.000 C 277.622 300.000,278.083 299.800,278.322 299.355 C 279.168 297.773,278.382 296.000,276.833 296.000 C 276.401 296.000,275.812 296.236,275.524 296.524 M295.965 296.705 C 295.487 296.880,294.928 297.393,294.722 297.845 L 294.348 298.667 297.043 298.667 C 299.364 298.667,299.710 298.593,299.536 298.139 C 299.424 297.849,299.333 297.498,299.333 297.360 C 299.333 296.598,297.322 296.207,295.965 296.705 M82.485 297.485 C 81.476 298.494,81.289 302.312,82.186 303.592 C 82.922 304.644,85.122 304.638,85.801 303.583 C 88.089 300.031,85.218 294.752,82.485 297.485 M237.152 297.485 C 234.555 300.082,236.994 305.609,240.022 303.988 C 241.158 303.380,240.979 297.436,239.812 296.992 C 238.521 296.501,238.047 296.589,237.152 297.485 M141.000 302.094 C 140.016 302.436,139.833 302.657,139.833 303.500 C 139.833 304.796,141.561 305.056,143.249 304.013 C 145.557 302.587,143.828 301.111,141.000 302.094 M334.333 302.094 C 333.349 302.436,333.167 302.657,333.167 303.500 C 333.167 304.796,334.894 305.056,336.582 304.013 C 338.891 302.587,337.161 301.111,334.333 302.094 M274.003 309.797 C 272.904 310.896,274.340 311.667,277.485 311.667 C 279.677 311.667,281.270 310.914,280.748 310.125 C 280.424 309.636,274.454 309.346,274.003 309.797 M93.183 335.274 C 95.900 337.620,104.199 343.444,109.501 346.725 C 169.523 383.861,246.724 380.335,303.437 337.865 L 307.040 335.167 298.490 335.078 L 289.940 334.989 287.702 336.477 C 235.848 370.949,167.197 371.269,113.555 337.288 L 109.944 335.000 101.405 335.000 C 96.709 335.000,93.009 335.123,93.183 335.274 M120.509 335.445 C 125.350 338.724,138.216 344.816,147.248 348.107 C 189.665 363.562,239.267 359.209,277.333 336.690 L 280.167 335.014 200.009 335.007 C 133.032 335.001,119.960 335.073,120.509 335.445 " stroke="none" fill="#7a1a11" fill-rule="evenodd"></path><path id="path5" d="" stroke="none" fill="#7a1a11" fill-rule="evenodd"></path><path id="path6" d="" stroke="none" fill="#7a1a11" fill-rule="evenodd"></path><path id="path7" d="" stroke="none" fill="#7a1a11" fill-rule="evenodd"></path><path id="path8" d="" stroke="none" fill="#7a1a11" fill-rule="evenodd"></path></g></svg>
