<svg width="47" height="49" viewBox="0 0 47 49" fill="none" xmlns="http://www.w3.org/2000/svg">
<path fill-rule="evenodd" clip-rule="evenodd" d="M27.2248 0.0358745C27.0374 0.0454295 26.884 0.0743395 26.884 0.100187C26.884 0.125912 26.7796 0.146982 26.6518 0.146982C26.5241 0.146982 26.4065 0.169032 26.3905 0.195982C26.3745 0.222932 26.2675 0.244982 26.1527 0.244982C26.0379 0.244982 25.944 0.267032 25.944 0.293982C25.944 0.320932 25.8594 0.342982 25.756 0.342982C25.6526 0.342982 25.568 0.365032 25.568 0.391982C25.568 0.418932 25.5059 0.440982 25.4298 0.440982C25.3538 0.440982 25.2785 0.463032 25.2625 0.489982C25.2465 0.516932 25.1831 0.538982 25.1215 0.538982C25.06 0.538982 24.9965 0.561032 24.9805 0.587982C24.9645 0.614932 24.8998 0.636982 24.8367 0.636982C24.7736 0.636982 24.722 0.659032 24.722 0.685982C24.722 0.712932 24.6704 0.734982 24.6073 0.734982C24.5442 0.734982 24.4795 0.757032 24.4635 0.783982C24.4475 0.810932 24.3828 0.832982 24.3197 0.832982C24.2566 0.832982 24.205 0.855032 24.205 0.881982C24.205 0.908932 24.1627 0.930982 24.111 0.930982C24.0593 0.930982 24.017 0.953032 24.017 0.979982C24.017 1.00693 23.9747 1.02898 23.923 1.02898C23.8713 1.02898 23.829 1.05103 23.829 1.07798C23.829 1.10493 23.7867 1.12698 23.735 1.12698C23.6833 1.12698 23.641 1.14903 23.641 1.17598C23.641 1.20293 23.5975 1.22498 23.5443 1.22498C23.448 1.22498 23.1187 1.3982 22.8817 1.57362C22.8131 1.62445 22.7338 1.66598 22.7055 1.66598C22.6772 1.66598 22.654 1.68803 22.654 1.71498C22.654 1.74193 22.6221 1.76398 22.5831 1.76398C22.544 1.76398 22.4458 1.83013 22.3646 1.91098C22.2834 1.99183 22.1932 2.05798 22.1639 2.05798C22.1347 2.05798 22.0803 2.10208 22.043 2.15598C22.0058 2.20988 21.9501 2.25398 21.9193 2.25398C21.8884 2.25398 21.7344 2.38628 21.5768 2.54798C21.4193 2.70968 21.2742 2.84198 21.2544 2.84198C21.2345 2.84198 21.0919 2.98592 20.9373 3.16195C20.783 3.33786 20.5455 3.60209 20.4098 3.74885C20.2741 3.89573 20.163 4.03856 20.163 4.06637C20.163 4.09418 20.0996 4.18605 20.022 4.2707C19.9445 4.35535 19.881 4.44943 19.881 4.47993C19.881 4.51043 19.8387 4.56715 19.787 4.60598C19.7353 4.64481 19.693 4.71096 19.693 4.75298C19.693 4.795 19.6507 4.86115 19.599 4.89998C19.5473 4.93882 19.505 5.00986 19.505 5.05776C19.505 5.10578 19.4839 5.14498 19.458 5.14498C19.4322 5.14498 19.411 5.18908 19.411 5.24298C19.411 5.29688 19.3899 5.34098 19.364 5.34098C19.3382 5.34098 19.317 5.36034 19.317 5.3841C19.317 5.40774 19.2418 5.55658 19.1498 5.71485C19.0578 5.873 18.9706 6.06312 18.9559 6.13723C18.9413 6.21134 18.9126 6.27198 18.8923 6.27198C18.8719 6.27198 18.841 6.36018 18.8235 6.46798C18.806 6.57578 18.7725 6.66398 18.7489 6.66398C18.7253 6.66398 18.706 6.73013 18.706 6.81098C18.706 6.89183 18.6849 6.95798 18.659 6.95798C18.6332 6.95798 18.612 7.00208 18.612 7.05598C18.612 7.10988 18.5909 7.15398 18.565 7.15398C18.5392 7.15398 18.518 7.21879 18.518 7.29804C18.518 7.3773 18.4969 7.45582 18.471 7.47248C18.4452 7.48914 18.424 7.56767 18.424 7.64692C18.424 7.72618 18.4029 7.79098 18.377 7.79098C18.3512 7.79098 18.33 7.85713 18.33 7.93798C18.33 8.01883 18.3089 8.08498 18.283 8.08498C18.2572 8.08498 18.236 8.17318 18.236 8.28098C18.236 8.38878 18.2149 8.47698 18.189 8.47698C18.1632 8.47698 18.142 8.58723 18.142 8.72198C18.142 8.85673 18.1209 8.96698 18.095 8.96698C18.0692 8.96698 18.048 9.06486 18.048 9.18454C18.048 9.30422 18.0269 9.41582 18.001 9.43248C17.9752 9.44914 17.954 9.62689 17.954 9.82742C17.954 10.0378 17.9342 10.192 17.907 10.192C17.878 10.192 17.86 10.4442 17.86 10.8505C17.86 11.2368 17.8406 11.5217 17.813 11.5395C17.7825 11.5591 17.766 12.6258 17.766 14.5794V17.589L14.4951 17.6023L11.2242 17.6155L11.0171 17.8574C10.9023 17.9917 10.81 18.1485 10.81 18.2097C10.81 18.2705 10.7889 18.3338 10.763 18.3505C10.6981 18.3924 10.6981 26.95 10.763 26.95C10.7889 26.95 10.81 27.0112 10.81 27.0862C10.81 27.1662 10.8488 27.2515 10.904 27.293C10.9557 27.3318 10.998 27.3896 10.998 27.4215C10.998 27.509 11.3139 27.685 11.4707 27.685C11.5468 27.685 11.609 27.707 11.609 27.734C11.609 27.7662 12.6665 27.783 14.6875 27.783H17.766V37.975C17.766 44.737 17.7819 48.167 17.813 48.167C17.8389 48.167 17.86 48.2406 17.86 48.3306C17.86 48.4582 17.9082 48.5476 18.078 48.7349L18.2958 48.9755L22.7662 48.9903C26.994 49.0043 27.2455 49.0002 27.401 48.9169C27.6106 48.8046 27.683 48.7324 27.683 48.636C27.683 48.5937 27.6989 48.5589 27.7183 48.5586C27.8684 48.557 27.871 48.3803 27.871 38.0387V27.783H31.49C33.8714 27.783 35.109 27.7662 35.109 27.734C35.109 27.707 35.184 27.685 35.2755 27.685C35.4585 27.685 35.5055 27.6548 35.7731 27.3665C35.9034 27.2261 35.955 27.1282 35.955 27.021C35.955 26.9388 35.9764 26.8493 36.0026 26.822C36.0595 26.7627 36.0388 18.5914 35.981 18.326C35.9604 18.2317 35.8775 18.0626 35.7966 17.9502C35.5216 17.5682 35.7879 17.591 31.6052 17.591H27.8695L27.8901 14.9327C27.9109 12.2394 27.9375 11.515 28.0158 11.515C28.0395 11.515 28.059 11.4488 28.059 11.368C28.059 11.2871 28.0802 11.221 28.106 11.221C28.1319 11.221 28.153 11.1689 28.153 11.1053C28.153 11.0418 28.2059 10.9085 28.2705 10.8091C28.3351 10.7099 28.388 10.6068 28.388 10.5802C28.388 10.5107 28.6711 10.229 28.8231 10.1469C28.894 10.1087 28.952 10.0591 28.952 10.0367C28.952 10.0144 28.9943 9.99598 29.046 9.99598C29.0977 9.99598 29.14 9.97393 29.14 9.94698C29.14 9.92003 29.1823 9.89798 29.234 9.89798C29.2857 9.89798 29.328 9.87593 29.328 9.84898C29.328 9.82203 29.4008 9.79998 29.4897 9.79998C29.5786 9.79998 29.6645 9.77793 29.6805 9.75098C29.6965 9.72403 29.8035 9.70198 29.9183 9.70198C30.0331 9.70198 30.127 9.67993 30.127 9.65298C30.127 9.62089 31.0356 9.60398 32.759 9.60398C34.4824 9.60398 35.391 9.58708 35.391 9.55498C35.391 9.52803 35.4709 9.50598 35.5687 9.50598C35.6924 9.50598 35.7668 9.47622 35.814 9.40798C35.8513 9.35408 35.9036 9.30998 35.9301 9.30998C35.9568 9.30998 36.042 9.2273 36.1195 9.12623L36.2605 8.94248L36.2738 4.88675C36.2885 0.426404 36.2968 0.56483 35.9933 0.235549L35.7989 0.024482L31.6821 0.0214195C29.418 0.019827 27.4122 0.0263195 27.2248 0.0358745Z" fill="white"/>
</svg>
