<svg width="65" height="23" viewBox="0 0 65 23" fill="none" xmlns="http://www.w3.org/2000/svg">
<path d="M15.0714 22.5869L0.895508 11.3355L15.6662 0.844232L11.6897 8.87609L48.5517 9.41809L52.4415 2.76367H54.4272L50.8261 9.41809H52.9826L57.201 2.76367H59.3403L55.0062 9.66802H57.8002L62.4412 2.76367H64.617L59.4127 11.3355V13.0225L64.8955 21.8521H62.8166L57.7447 15.2755H55.3869L59.541 21.2898H57.201L52.9826 15.2755H50.5575L54.4272 21.8519H52.0269L48.3025 15.2755L11.6897 14.4053L15.0714 22.5869Z" fill="black"/>
<path d="M15.0714 22.5869L0.895508 11.3355L15.6662 0.844232L11.6897 8.87609L48.5517 9.41809L52.4415 2.76367H54.4272L50.8261 9.41809H52.9826L57.201 2.76367H59.3403L55.0062 9.66802H57.8002L62.4412 2.76367H64.617L59.4127 11.3355V13.0225L64.8955 21.8521H62.8166L57.7447 15.2755H55.3869L59.541 21.2898H57.201L52.9826 15.2755H50.5575L54.4272 21.8519H52.0269L48.3025 15.2755L11.6897 14.4053L15.0714 22.5869Z" fill="black"/>
</svg>
